HIERARCHY
ROOT Hips
{
  OFFSET -35.4901 99.2528 17.4586
  CHANNELS 6 Xposition Yposition Zposition Zrotation Xrotation Yrotation
  JOINT LeftUpLeg
  {
    OFFSET 8.64259 1.95398 -2.38835
    CHANNELS 3 Zrotation Xrotation Yrotation
    JOINT LeftLeg
    {
      OFFSET 43.7702 0 0
      CHANNELS 3 Zrotation Xrotation Yrotation
      JOINT LeftFoot
      {
        OFFSET 40.6238 0 0
        CHANNELS 3 Zrotation Xrotation Yrotation
        JOINT LeftToeBase
        {
          OFFSET 12.7242 0 0
          CHANNELS 3 Zrotation Xrotation Yrotation
          End Site
          {
            OFFSET 0 0 0
          }
        }
      }
    }
  }
  JOINT RightUpLeg
  {
    OFFSET -8.2249 1.95398 -2.59336
    CHANNELS 3 Zrotation Xrotation Yrotation
    JOINT RightLeg
    {
      OFFSET 43.5653 0 0
      CHANNELS 3 Zrotation Xrotation Yrotation
      JOINT RightFoot
      {
        OFFSET 40.6238 0 0
        CHANNELS 3 Zrotation Xrotation Yrotation
        JOINT RightToeBase
        {
          OFFSET 12.7242 0 0
          CHANNELS 3 Zrotation Xrotation Yrotation
          End Site
          {
            OFFSET 0 0 0
          }
        }
      }
    }
  }
  JOINT Spine
  {
    OFFSET 0.165834 0.87714 6.61349
    CHANNELS 3 Zrotation Xrotation Yrotation
    JOINT Spine1
    {
      OFFSET 7.38963 1.71661e-005 0
      CHANNELS 3 Zrotation Xrotation Yrotation
      JOINT Spine2
      {
        OFFSET 11.9445 1.14441e-005 0
        CHANNELS 3 Zrotation Xrotation Yrotation
        JOINT Spine3
        {
          OFFSET 14.7254 4.19617e-005 0
          CHANNELS 3 Zrotation Xrotation Yrotation
          JOINT Spine4
          {
            OFFSET 10.9679 0 0
            CHANNELS 3 Zrotation Xrotation Yrotation
            JOINT RightShoulder
            {
              OFFSET 2.46616 -1.6653 3.69651
              CHANNELS 3 Zrotation Xrotation Yrotation
              JOINT RightArm
              {
                OFFSET 13.0012 0 0
                CHANNELS 3 Zrotation Xrotation Yrotation
                JOINT RightForeArm
                {
                  OFFSET 28.7848 1.52588e-005 0
                  CHANNELS 3 Zrotation Xrotation Yrotation
                  JOINT RightHand
                  {
                    OFFSET 26.5688 1.52588e-005 0
                    CHANNELS 3 Zrotation Xrotation Yrotation
                    End Site
                    {
                      OFFSET 0 0 0
                    }
                  }
                }
              }
            }
            JOINT LeftShoulder
            {
              OFFSET 2.38034 -1.29275 -3.7523
              CHANNELS 3 Zrotation Xrotation Yrotation
              JOINT LeftArm
              {
                OFFSET 16.3182 6.10351e-005 0
                CHANNELS 3 Zrotation Xrotation Yrotation
                JOINT LeftForeArm
                {
                  OFFSET 27.0901 0 0
                  CHANNELS 3 Zrotation Xrotation Yrotation
                  JOINT LeftHand
                  {
                    OFFSET 24.5451 1.52588e-005 0
                    CHANNELS 3 Zrotation Xrotation Yrotation
                    End Site
                    {
                      OFFSET 0 0 0
                    }
                  }
                }
              }
            }
            JOINT Neck
            {
              OFFSET 5.0226 -0.0266342 0
              CHANNELS 3 Zrotation Xrotation Yrotation
              JOINT Head
              {
                OFFSET 6.69364 2.86102e-005 0
                CHANNELS 3 Zrotation Xrotation Yrotation
                End Site
                {
                  OFFSET 0 0 0
                }
              }
            }
          }
        }
      }
    }
  }
}
MOTION
Frames:	7
Frame Time:	0.0416667
-276.173 85.5109 257.165 95.3322 45.1469 100.082 -167.342 -28.5389 101.708 -13.4608 -1.79392 0.294454 86.9225 10.6346 -2.56547 39.8478 -1.29706 1.54293 172.922 32.4886 105.821 -36.3281 -18.7372 5.41427 64.6604 -1.83523 -0.770277 16.1963 -1.59665 4.62581 -1.47602 7.73554 -92.2173 11.3184 -3.96988 -4.02003 -0.352195 -4.14284 -3.84154 -22.8616 -2.57989 -5.02553 -2.84895 -2.57993 -5.02554 92.2393 -34.0251 -101.089 36.1303 9.03012 14.8864 6.01765 -4.73037 0.00327548 -15.5135 0.754141 -12.1983 -84.2893 -53.8226 87.7469 -27.1844 8.61112 -21.2453 4.45693 16.8457 -2.78037 10.0099 0.824721 4.052 -6.9546 6.58088 -3.92645 -7.0323 6.33803 12.5601 
-269.997 83.9099 250.771 96.9523 42.0567 100.467 -165.379 -25.9816 103.472 -28.2327 -0.562918 0.131231 77.3404 7.12891 -1.68047 53.0312 0.349059 -3.71439 173.84 31.8489 108.451 -49.1239 -19.771 4.58392 75.101 -7.1911 -2.70072 19.0902 -2.27222 5.99244 -1.04903 7.64992 -92.4967 11.4854 -3.25341 -4.64247 -0.189264 -3.45438 -4.49509 -22.6695 -1.71014 -5.40355 -2.65685 -1.71012 -5.40355 90.654 -33.5581 -104.23 35.3664 7.38452 12.561 7.37384 -5.75012 -0.170871 -15.8112 0.806364 -12.7606 -83.859 -56.6771 88.6554 -27.9106 14.213 -17.0638 -0.304612 9.12352 0.189502 7.46024 0.3056 0.437947 -7.71894 6.84043 1.33175 -7.38053 6.25021 10.5382 
-265.055 83.182 245.311 99.4222 41.8917 98.1006 -164.401 -14.431 105.435 -54.7732 14.2643 3.128 65.0903 2.85489 0.0319421 31.6992 0.75157 -3.18555 174.4 27.2546 107.367 -55.3516 -20.6906 3.93427 83.3465 -11.8606 -4.67534 17.2493 -3.39368 8.2867 -0.851939 7.77748 -92.4522 11.2387 -2.83617 -4.60359 -0.436781 -3.03583 -4.47461 -22.9141 -1.32367 -5.24141 -2.90149 -1.32366 -5.24141 90.9734 -32.3599 -104.017 34.624 5.4857 7.81402 7.80302 -6.86823 -1.27188 -19.781 0.536822 -9.46437 -83.4077 -57.8595 89.3933 -27.6366 12.1898 -12.8902 0.171413 8.86364 0.000271306 5.42452 0.581096 5.34571 -5.80796 7.00205 5.89542 -7.06511 6.10001 8.085 
-261.232 83.5671 241.122 99.3188 43.7841 96.8957 -167.599 3.76017 103.814 -84.3594 23.7473 8.17997 63.2534 1.9831 0.510694 17.676 1.05906 -0.350572 174.606 23.2599 105.9 -56.5492 -20.0625 3.37705 88.2381 -14.5917 -4.88713 15.5182 -3.08147 7.55667 -0.407396 7.76695 -92.1773 11.2861 -1.82441 -4.15422 -0.38995 -2.00534 -4.0701 -22.8729 -0.49302 -4.50972 -2.8603 -0.493018 -4.50974 91.1773 -30.9712 -104.081 35.4227 6.40705 3.28433 6.58583 -5.83936 -3.03777 -21.4795 0.645767 -9.55544 -83.0098 -55.2657 89.7245 -26.3874 7.07418 -9.65739 2.92623 10.3685 0.0335186 6.56195 0.56217 4.01167 -2.7074 5.11727 6.48169 -6.38337 4.12017 5.75459 
-257.626 85.9013 236.59 99.4436 45.2509 93.0048 -172.266 20.1349 97.5754 -99.4073 11.1242 8.08485 65.4127 3.00254 1.93931 12.0654 0.948034 0.0807172 174.385 16.9752 101.106 -52.9001 -19.6511 2.48069 88.7671 -14.474 -3.69814 18.3796 -3.58519 8.74935 0.217375 7.84885 -91.5876 11.1613 -0.304875 -3.13028 -0.513332 -0.442273 -3.11386 -23.019 0.649515 -3.07735 -3.00637 0.649549 -3.07734 91.3601 -28.316 -104.647 36.9439 7.17017 -0.249577 5.87007 -4.4626 -3.24712 -23.8059 0.599802 -8.69148 -82.9396 -54.1611 89.7305 -22.3155 3.80927 -12.0265 4.5987 14.2938 -0.412229 6.95312 0.739442 5.77962 -3.28887 1.73563 6.0398 -4.84802 0.990554 2.53605 
-253.408 91.1859 231.428 103.194 45.5839 85.244 -173.942 28.9259 90.5975 -98.395 -0.756855 6.64065 68.6926 4.72631 2.63151 6.05481 0.788484 0.769752 173.764 7.57382 95.0414 -45.9889 -23.1284 0.542322 76.1408 -8.53774 -5.65949 29.1776 -4.81401 13.0619 0.841597 8.25165 -90.7895 10.3769 1.31506 -1.68486 -1.2945 1.23967 -1.74111 -23.83 1.7606 -1.21177 -3.81737 1.76061 -1.21178 90.28 -29.5378 -106.377 34.951 6.18367 -1.04639 6.12374 -8.22012 -4.93891 -27.422 0.37496 -7.54322 -83.6712 -52.4829 88.5063 -20.6321 1.20224 -13.8445 6.17291 14.4901 -1.46177 6.54164 0.563787 3.98857 -8.0803 -1.48013 0.703414 -2.56124 -1.54952 1.58115 
-248.878 96.4873 226.306 105.226 44.7645 79.8631 -175.788 33.0579 85.6067 -88.9831 -1.24853 5.43068 71.3862 5.92646 2.61731 9.96341 -0.123644 1.50504 175.432 2.30018 92.5182 -42.2138 -21.7319 -3.67516 61.2315 -0.438927 -2.15772 28.142 -4.52323 12.4368 1.21007 8.53075 -90.1142 9.81792 2.3604 -0.413286 -1.85096 2.33992 -0.516829 -24.4033 2.37541 0.315632 -4.39067 2.37542 0.31563 90.2749 -28.2211 -106.909 36.4574 4.23328 -2.76091 6.73578 -8.4337 -6.07689 -24.8873 1.05619 -11.144 -84.3911 -49.2495 87.0648 -20.8502 1.52851 -12.5602 6.7019 17.2877 -3.15961 3.62406 0.388928 4.67572 -13.467 -2.45305 -3.98923 -0.994654 -2.3693 -0.44962 
